<svg xmlns="http://www.w3.org/2000/svg" xmlns:xlink="http://www.w3.org/1999/xlink" width="50" zoomAndPan="magnify" viewBox="0 0 37.5 37.499999" height="50" preserveAspectRatio="xMidYMid meet" version="1.0"><defs><g/></defs><g fill="#0db6cc" fill-opacity="1"><g transform="translate(2.833693, 37.946332)"><g><path d="M 31.15625 -22.6875 C 30.78125 -21.71875 30.375 -20.765625 29.9375 -19.828125 C 29.507812 -18.898438 29.019531 -18.003906 28.46875 -17.140625 C 27.039062 -14.785156 25.359375 -12.734375 23.421875 -10.984375 C 22.929688 -10.460938 22.40625 -9.9375 21.84375 -9.40625 C 21.289062 -8.882812 20.695312 -8.421875 20.0625 -8.015625 C 19.050781 -7.304688 17.992188 -6.671875 16.890625 -6.109375 C 15.785156 -5.546875 14.640625 -5.113281 13.453125 -4.8125 L 12.828125 -4.65625 C 12.234375 -4.5 11.617188 -4.363281 10.984375 -4.25 C 10.347656 -4.144531 9.710938 -4.09375 9.078125 -4.09375 C 9.265625 -3.90625 9.675781 -3.828125 10.3125 -3.859375 C 10.945312 -3.898438 11.582031 -3.976562 12.21875 -4.09375 C 12.851562 -4.207031 13.242188 -4.28125 13.390625 -4.3125 C 14.703125 -4.644531 15.953125 -5.128906 17.140625 -5.765625 C 17.703125 -6.023438 18.523438 -6.519531 19.609375 -7.25 C 20.691406 -7.976562 21.882812 -8.941406 23.1875 -10.140625 C 24.5 -11.335938 25.789062 -12.738281 27.0625 -14.34375 C 28.332031 -15.945312 29.4375 -17.773438 30.375 -19.828125 C 30.445312 -19.679688 30.519531 -19.570312 30.59375 -19.5 C 30.476562 -19.050781 30.375 -18.601562 30.28125 -18.15625 C 30.1875 -17.707031 30.066406 -17.257812 29.921875 -16.8125 L 29.75 -16.3125 C 29.71875 -16.195312 29.671875 -16.082031 29.609375 -15.96875 C 29.554688 -15.851562 29.492188 -15.738281 29.421875 -15.625 C 28.484375 -14.175781 27.460938 -12.804688 26.359375 -11.515625 C 25.253906 -10.222656 24.03125 -9.035156 22.6875 -7.953125 C 21.5 -7.023438 20.226562 -6.203125 18.875 -5.484375 C 17.53125 -4.773438 16.09375 -4.234375 14.5625 -3.859375 C 13.113281 -3.523438 11.640625 -3.359375 10.140625 -3.359375 C 9.921875 -3.398438 9.648438 -3.46875 9.328125 -3.5625 C 9.015625 -3.65625 8.835938 -3.832031 8.796875 -4.09375 C 8.234375 -4.125 7.679688 -4.203125 7.140625 -4.328125 C 6.597656 -4.460938 6.066406 -4.679688 5.546875 -4.984375 C 4.316406 -5.691406 3.328125 -6.757812 2.578125 -8.1875 C 1.085938 -9.789062 0.207031 -11.675781 -0.0625 -13.84375 C -0.394531 -16.082031 -0.113281 -18.25 0.78125 -20.34375 C 1.675781 -22.4375 2.835938 -24.300781 4.265625 -25.9375 C 5.566406 -27.4375 7.039062 -28.765625 8.6875 -29.921875 C 10.332031 -31.078125 12.085938 -31.953125 13.953125 -32.546875 C 14.023438 -32.921875 14.269531 -33.164062 14.6875 -33.28125 C 16.695312 -33.800781 18.785156 -34.179688 20.953125 -34.421875 C 23.117188 -34.671875 25.226562 -34.585938 27.28125 -34.171875 C 27.769531 -34.097656 28.3125 -33.957031 28.90625 -33.75 C 29.507812 -33.550781 29.992188 -33.253906 30.359375 -32.859375 C 30.734375 -32.472656 30.8125 -31.941406 30.59375 -31.265625 C 30.476562 -30.960938 30.289062 -30.753906 30.03125 -30.640625 C 29.769531 -30.535156 29.488281 -30.445312 29.1875 -30.375 C 29.257812 -30.21875 29.238281 -30.054688 29.125 -29.890625 C 29.019531 -29.722656 28.875 -29.640625 28.6875 -29.640625 C 28.09375 -29.679688 27.476562 -29.679688 26.84375 -29.640625 C 26.207031 -29.597656 25.570312 -29.597656 24.9375 -29.640625 C 24.375 -29.640625 23.8125 -29.617188 23.25 -29.578125 C 22.6875 -29.546875 22.128906 -29.492188 21.578125 -29.421875 C 19.296875 -29.078125 17.128906 -28.363281 15.078125 -27.28125 C 11.453125 -25.300781 8.78125 -22.460938 7.0625 -18.765625 C 6.644531 -17.867188 6.285156 -16.914062 5.984375 -15.90625 C 5.691406 -14.90625 5.546875 -13.898438 5.546875 -12.890625 C 5.503906 -12.066406 5.625 -11.242188 5.90625 -10.421875 C 6.1875 -9.597656 6.664062 -8.984375 7.34375 -8.578125 L 8.0625 -8.40625 C 8.738281 -8.289062 9.410156 -8.257812 10.078125 -8.3125 C 10.753906 -8.375 11.429688 -8.476562 12.109375 -8.625 C 12.296875 -8.695312 12.488281 -8.769531 12.6875 -8.84375 C 12.894531 -8.925781 13.070312 -8.984375 13.21875 -9.015625 C 15.050781 -9.804688 16.695312 -10.910156 18.15625 -12.328125 C 18.976562 -13.109375 19.722656 -13.9375 20.390625 -14.8125 C 21.066406 -15.695312 21.703125 -16.601562 22.296875 -17.53125 C 22.597656 -17.976562 22.867188 -18.425781 23.109375 -18.875 C 23.359375 -19.332031 23.613281 -19.785156 23.875 -20.234375 L 23.640625 -20.234375 C 23.046875 -20.078125 22.441406 -19.941406 21.828125 -19.828125 C 21.210938 -19.722656 20.585938 -19.59375 19.953125 -19.4375 C 18.679688 -19.175781 17.425781 -18.859375 16.1875 -18.484375 C 14.957031 -18.117188 13.707031 -17.765625 12.4375 -17.421875 C 11.65625 -17.234375 11 -17.390625 10.46875 -17.890625 C 9.945312 -18.398438 9.6875 -19.019531 9.6875 -19.75 C 9.6875 -20.476562 10.046875 -21.03125 10.765625 -21.40625 L 11.09375 -21.578125 C 11.050781 -22.023438 11.132812 -22.453125 11.34375 -22.859375 C 11.550781 -23.273438 11.9375 -23.554688 12.5 -23.703125 C 12.53125 -23.734375 12.570312 -23.75 12.625 -23.75 C 12.6875 -23.75 12.738281 -23.769531 12.78125 -23.8125 C 14.050781 -24.1875 15.328125 -24.539062 16.609375 -24.875 C 17.898438 -25.207031 19.179688 -25.523438 20.453125 -25.828125 C 21.753906 -26.128906 23.050781 -26.445312 24.34375 -26.78125 C 25.632812 -27.113281 26.929688 -27.359375 28.234375 -27.515625 C 28.910156 -27.585938 29.554688 -27.453125 30.171875 -27.109375 C 30.785156 -26.773438 31.1875 -26.273438 31.375 -25.609375 C 31.53125 -25.117188 31.578125 -24.617188 31.515625 -24.109375 C 31.460938 -23.609375 31.34375 -23.132812 31.15625 -22.6875 Z M 31.15625 -22.6875 "/></g></g></g></svg>