<svg xmlns="http://www.w3.org/2000/svg" xmlns:xlink="http://www.w3.org/1999/xlink" width="100" zoomAndPan="magnify" viewBox="0 0 75 74.999997" height="100" preserveAspectRatio="xMidYMid meet" version="1.0"><defs><g/></defs><g fill="#ffffff" fill-opacity="0.4"><g transform="translate(8.745061, 60.498119)"><g><path d="M 5.515625 -22.234375 L 5.5 -22.25 C 5.664062 -22.257812 5.828125 -22.285156 5.984375 -22.328125 C 6.140625 -22.378906 6.28125 -22.4375 6.40625 -22.5 C 7.050781 -22.832031 7.441406 -23.414062 7.578125 -24.25 C 7.710938 -25.082031 7.78125 -25.867188 7.78125 -26.609375 C 7.800781 -27.210938 7.796875 -27.851562 7.765625 -28.53125 C 7.734375 -29.21875 7.675781 -29.816406 7.59375 -30.328125 C 7.550781 -30.628906 7.46875 -30.90625 7.34375 -31.15625 C 7.09375 -31.644531 6.816406 -31.847656 6.515625 -31.765625 L 6.40625 -31.703125 C 6.238281 -31.617188 6.097656 -31.476562 5.984375 -31.28125 C 5.878906 -31.09375 5.796875 -30.953125 5.734375 -30.859375 C 5.046875 -29.628906 4.484375 -28.269531 4.046875 -26.78125 C 3.617188 -25.300781 3.253906 -23.878906 2.953125 -22.515625 C 2.835938 -22.046875 2.726562 -21.582031 2.625 -21.125 C 2.53125 -20.664062 2.457031 -20.203125 2.40625 -19.734375 C 2.25 -18.222656 2.128906 -16.71875 2.046875 -15.21875 C 1.960938 -13.726562 1.96875 -12.273438 2.0625 -10.859375 C 2.113281 -9.898438 2.210938 -8.992188 2.359375 -8.140625 C 2.503906 -7.285156 2.675781 -6.441406 2.875 -5.609375 C 2.957031 -5.222656 3.082031 -4.796875 3.25 -4.328125 C 3.414062 -3.859375 3.613281 -3.398438 3.84375 -2.953125 C 4.09375 -2.472656 4.34375 -2.097656 4.59375 -1.828125 C 4.75 -1.640625 4.894531 -1.492188 5.03125 -1.390625 C 5.175781 -1.285156 5.363281 -1.296875 5.59375 -1.421875 C 5.71875 -1.484375 5.804688 -1.546875 5.859375 -1.609375 C 6.148438 -1.816406 6.425781 -2.148438 6.6875 -2.609375 C 6.957031 -3.066406 7.160156 -3.445312 7.296875 -3.75 C 7.484375 -4.175781 7.679688 -4.597656 7.890625 -5.015625 C 8.109375 -5.429688 8.285156 -5.816406 8.421875 -6.171875 C 8.679688 -6.753906 8.867188 -7.28125 8.984375 -7.75 C 9.109375 -8.21875 9.242188 -8.828125 9.390625 -9.578125 C 9.472656 -9.953125 9.53125 -10.378906 9.5625 -10.859375 C 9.601562 -11.347656 9.609375 -11.742188 9.578125 -12.046875 C 8.960938 -11.796875 8.4375 -11.679688 8 -11.703125 C 7.570312 -11.734375 7.109375 -11.835938 6.609375 -12.015625 C 6.523438 -12.066406 6.4375 -12.117188 6.34375 -12.171875 C 6.257812 -12.222656 6.171875 -12.285156 6.078125 -12.359375 C 5.847656 -12.453125 5.632812 -12.53125 5.4375 -12.59375 C 5.238281 -12.664062 5.078125 -12.773438 4.953125 -12.921875 C 4.867188 -13.023438 4.785156 -13.132812 4.703125 -13.25 C 4.617188 -13.363281 4.523438 -13.457031 4.421875 -13.53125 C 4.367188 -13.550781 4.300781 -13.570312 4.21875 -13.59375 C 4.144531 -13.613281 4.09375 -13.660156 4.0625 -13.734375 L 4.015625 -13.8125 C 4.023438 -13.894531 4.101562 -13.984375 4.25 -14.078125 C 4.394531 -14.171875 4.503906 -14.234375 4.578125 -14.265625 C 4.984375 -14.421875 5.410156 -14.515625 5.859375 -14.546875 C 6.304688 -14.585938 6.734375 -14.675781 7.140625 -14.8125 C 7.253906 -14.820312 7.359375 -14.832031 7.453125 -14.84375 C 7.554688 -14.851562 7.660156 -14.890625 7.765625 -14.953125 L 7.984375 -15.0625 C 8.285156 -15.21875 8.585938 -15.40625 8.890625 -15.625 C 9.203125 -15.84375 9.503906 -16.039062 9.796875 -16.21875 C 10.171875 -16.457031 10.523438 -16.675781 10.859375 -16.875 C 11.191406 -17.070312 11.523438 -17.28125 11.859375 -17.5 C 12.210938 -17.738281 12.53125 -17.953125 12.8125 -18.140625 C 13.101562 -18.328125 13.398438 -18.5 13.703125 -18.65625 C 13.984375 -18.800781 14.25 -18.960938 14.5 -19.140625 C 14.757812 -19.316406 15.015625 -19.472656 15.265625 -19.609375 L 15.578125 -19.765625 C 15.847656 -19.859375 16.015625 -19.835938 16.078125 -19.703125 C 16.128906 -19.609375 16.164062 -19.53125 16.1875 -19.46875 C 16.226562 -19.25 16.265625 -19.117188 16.296875 -19.078125 C 16.304688 -18.878906 16.257812 -18.675781 16.15625 -18.46875 C 16.050781 -18.269531 15.957031 -18.0625 15.875 -17.84375 C 15.863281 -17.632812 15.835938 -17.488281 15.796875 -17.40625 C 15.765625 -17.332031 15.710938 -17.234375 15.640625 -17.109375 C 15.640625 -17.109375 15.628906 -17.066406 15.609375 -16.984375 C 15.460938 -16.742188 15.367188 -16.550781 15.328125 -16.40625 C 15.285156 -16.257812 15.222656 -16.117188 15.140625 -15.984375 C 15.066406 -15.847656 14.894531 -15.648438 14.625 -15.390625 C 14.550781 -14.617188 14.484375 -14.09375 14.421875 -13.8125 C 14.359375 -13.539062 14.316406 -13.195312 14.296875 -12.78125 C 14.253906 -12.050781 14.191406 -11.347656 14.109375 -10.671875 C 14.035156 -9.992188 13.972656 -9.3125 13.921875 -8.625 C 13.878906 -8.132812 13.828125 -7.601562 13.765625 -7.03125 C 13.710938 -6.46875 13.648438 -5.96875 13.578125 -5.53125 C 13.503906 -4.5 13.40625 -3.546875 13.28125 -2.671875 C 13.15625 -1.804688 13.128906 -0.835938 13.203125 0.234375 C 13.242188 0.335938 13.265625 0.484375 13.265625 0.671875 C 13.273438 0.859375 13.332031 1.082031 13.4375 1.34375 C 13.476562 1.414062 13.425781 1.488281 13.28125 1.5625 C 13.125 1.644531 12.835938 1.664062 12.421875 1.625 C 12.003906 1.59375 11.644531 1.414062 11.34375 1.09375 C 11.226562 0.988281 11.109375 0.847656 10.984375 0.671875 C 10.867188 0.492188 10.757812 0.316406 10.65625 0.140625 C 10.457031 -0.253906 10.285156 -0.660156 10.140625 -1.078125 C 10.003906 -1.492188 9.875 -1.851562 9.75 -2.15625 C 9.382812 -1.613281 8.957031 -1.078125 8.46875 -0.546875 C 7.976562 -0.0234375 7.429688 0.390625 6.828125 0.703125 C 6.691406 0.765625 6.554688 0.828125 6.421875 0.890625 C 6.285156 0.953125 6.144531 1.003906 6 1.046875 C 5.53125 1.171875 5.117188 1.203125 4.765625 1.140625 C 4.421875 1.085938 4.054688 1 3.671875 0.875 C 3.484375 0.820312 3.300781 0.769531 3.125 0.71875 C 2.957031 0.664062 2.785156 0.609375 2.609375 0.546875 C 1.929688 0.253906 1.304688 -0.171875 0.734375 -0.734375 C 0.171875 -1.296875 -0.347656 -2.019531 -0.828125 -2.90625 L -1.4375 -4.265625 C -1.914062 -5.304688 -2.265625 -6.363281 -2.484375 -7.4375 C -2.710938 -8.519531 -2.890625 -9.5625 -3.015625 -10.5625 C -3.253906 -12.613281 -3.347656 -14.578125 -3.296875 -16.453125 C -3.222656 -17.429688 -3.164062 -18.257812 -3.125 -18.9375 C -3.082031 -19.613281 -3.015625 -20.285156 -2.921875 -20.953125 C -2.828125 -21.617188 -2.671875 -22.40625 -2.453125 -23.3125 C -2.304688 -24.144531 -2.101562 -24.953125 -1.84375 -25.734375 C -1.582031 -26.515625 -1.300781 -27.257812 -1 -27.96875 C -0.71875 -28.71875 -0.347656 -29.457031 0.109375 -30.1875 C 0.578125 -30.914062 1.0625 -31.5 1.5625 -31.9375 C 1.800781 -32.164062 2.066406 -32.378906 2.359375 -32.578125 C 2.660156 -32.773438 2.9375 -33 3.1875 -33.25 L 3.46875 -33.390625 C 4 -33.660156 4.65625 -33.820312 5.4375 -33.875 C 6.21875 -33.925781 7 -33.914062 7.78125 -33.84375 C 8.5625 -33.78125 9.203125 -33.695312 9.703125 -33.59375 C 10.066406 -33.488281 10.398438 -33.328125 10.703125 -33.109375 C 11.015625 -32.890625 11.28125 -32.570312 11.5 -32.15625 C 11.539062 -32.0625 11.582031 -31.945312 11.625 -31.8125 C 11.675781 -31.675781 11.726562 -31.546875 11.78125 -31.421875 C 11.832031 -31.253906 11.898438 -31.078125 11.984375 -30.890625 C 12.066406 -30.710938 12.132812 -30.519531 12.1875 -30.3125 C 12.320312 -29.6875 12.40625 -29.085938 12.4375 -28.515625 C 12.46875 -27.941406 12.460938 -27.296875 12.421875 -26.578125 C 12.378906 -25.972656 12.300781 -25.316406 12.1875 -24.609375 C 12.070312 -23.898438 11.867188 -23.253906 11.578125 -22.671875 C 11.285156 -22.097656 10.859375 -21.664062 10.296875 -21.375 C 9.648438 -21.039062 8.945312 -20.898438 8.1875 -20.953125 C 7.4375 -21.003906 6.796875 -21.175781 6.265625 -21.46875 L 6.234375 -21.53125 C 6.117188 -21.738281 5.976562 -21.890625 5.8125 -21.984375 C 5.65625 -22.078125 5.554688 -22.160156 5.515625 -22.234375 Z M 5.515625 -22.234375 "/></g></g></g><g fill="#ffffff" fill-opacity="0.4"><g transform="translate(27.046579, 50.77305)"><g><path d="M 3.859375 -5.46875 C 3.960938 -5.625 4.054688 -5.800781 4.140625 -6 C 4.234375 -6.195312 4.328125 -6.410156 4.421875 -6.640625 C 5.441406 -9.472656 6.492188 -12.585938 7.578125 -15.984375 C 8.671875 -19.390625 9.789062 -22.851562 10.9375 -26.375 C 11.039062 -26.71875 11.160156 -27.0625 11.296875 -27.40625 C 11.429688 -27.75 11.484375 -28.132812 11.453125 -28.5625 C 11.453125 -28.726562 11.429688 -28.890625 11.390625 -29.046875 C 11.359375 -29.203125 11.375 -29.34375 11.4375 -29.46875 C 11.5 -29.601562 11.609375 -29.722656 11.765625 -29.828125 C 11.921875 -29.929688 12.070312 -30.007812 12.21875 -30.0625 L 12.328125 -30.09375 C 12.503906 -30.15625 12.679688 -30.1875 12.859375 -30.1875 C 13.046875 -30.195312 13.210938 -30.210938 13.359375 -30.234375 C 13.710938 -30.328125 14.070312 -30.421875 14.4375 -30.515625 C 14.8125 -30.609375 15.117188 -30.585938 15.359375 -30.453125 C 15.535156 -30.316406 15.71875 -30.164062 15.90625 -30 C 16.09375 -29.84375 16.234375 -29.632812 16.328125 -29.375 C 16.359375 -29.289062 16.378906 -29.210938 16.390625 -29.140625 C 16.398438 -29.066406 16.40625 -28.988281 16.40625 -28.90625 C 16.425781 -28.664062 16.421875 -28.410156 16.390625 -28.140625 C 16.359375 -27.867188 16.320312 -27.585938 16.28125 -27.296875 C 16.226562 -26.546875 16.132812 -25.757812 16 -24.9375 C 15.863281 -24.125 15.796875 -23.316406 15.796875 -22.515625 C 15.785156 -22.265625 15.769531 -21.863281 15.75 -21.3125 C 15.738281 -20.757812 15.710938 -20.207031 15.671875 -19.65625 C 15.640625 -19.101562 15.617188 -18.703125 15.609375 -18.453125 C 15.578125 -17.753906 15.539062 -17.03125 15.5 -16.28125 C 15.46875 -15.53125 15.457031 -14.796875 15.46875 -14.078125 C 15.476562 -12.984375 15.492188 -11.929688 15.515625 -10.921875 C 15.535156 -9.921875 15.554688 -9.050781 15.578125 -8.3125 C 15.742188 -8.488281 15.867188 -8.675781 15.953125 -8.875 C 16.046875 -9.070312 16.109375 -9.28125 16.140625 -9.5 L 16.1875 -9.625 C 17.40625 -13.519531 18.363281 -17.660156 19.0625 -22.046875 C 19.769531 -26.429688 20.457031 -30.894531 21.125 -35.4375 C 21.175781 -35.78125 21.25 -36.101562 21.34375 -36.40625 C 21.4375 -36.71875 21.675781 -36.953125 22.0625 -37.109375 L 22.125 -37.125 C 22.644531 -37.21875 23.226562 -37.316406 23.875 -37.421875 C 24.53125 -37.535156 24.976562 -37.394531 25.21875 -37 C 25.269531 -36.957031 25.3125 -36.890625 25.34375 -36.796875 C 25.40625 -36.628906 25.429688 -36.445312 25.421875 -36.25 C 25.410156 -36.0625 25.414062 -35.859375 25.4375 -35.640625 C 25.195312 -34.972656 24.957031 -34.1875 24.71875 -33.28125 C 24.488281 -32.382812 24.273438 -31.523438 24.078125 -30.703125 C 23.878906 -29.890625 23.726562 -29.234375 23.625 -28.734375 C 23.507812 -28.109375 23.34375 -27.316406 23.125 -26.359375 C 22.914062 -25.398438 22.703125 -24.4375 22.484375 -23.46875 C 22.273438 -22.5 22.101562 -21.6875 21.96875 -21.03125 C 21.820312 -20.382812 21.679688 -19.734375 21.546875 -19.078125 C 21.410156 -18.429688 21.289062 -17.804688 21.1875 -17.203125 C 20.957031 -15.921875 20.703125 -14.628906 20.421875 -13.328125 C 20.140625 -12.035156 19.851562 -10.769531 19.5625 -9.53125 C 19.46875 -9.21875 19.382812 -8.898438 19.3125 -8.578125 C 19.25 -8.253906 19.171875 -7.9375 19.078125 -7.625 C 18.960938 -7.3125 18.875 -7.003906 18.8125 -6.703125 C 18.75 -6.410156 18.664062 -6.09375 18.5625 -5.75 L 18.015625 -3.90625 C 17.890625 -3.488281 17.753906 -3.050781 17.609375 -2.59375 C 17.472656 -2.132812 17.238281 -1.785156 16.90625 -1.546875 C 16.820312 -1.484375 16.628906 -1.398438 16.328125 -1.296875 C 16.179688 -1.253906 16.03125 -1.210938 15.875 -1.171875 C 15.726562 -1.140625 15.601562 -1.117188 15.5 -1.109375 C 15.164062 -1.128906 14.835938 -1.179688 14.515625 -1.265625 C 14.191406 -1.359375 13.894531 -1.453125 13.625 -1.546875 C 13.519531 -1.597656 13.414062 -1.632812 13.3125 -1.65625 C 13.207031 -1.6875 13.109375 -1.707031 13.015625 -1.71875 C 12.503906 -1.925781 12.085938 -2.3125 11.765625 -2.875 C 11.441406 -3.4375 11.164062 -4.054688 10.9375 -4.734375 L 10.71875 -5.390625 C 10.53125 -6.023438 10.398438 -6.628906 10.328125 -7.203125 C 10.253906 -7.785156 10.210938 -8.351562 10.203125 -8.90625 C 10.179688 -10.050781 10.179688 -11.15625 10.203125 -12.21875 C 10.234375 -13.28125 10.203125 -14.375 10.109375 -15.5 C 10.023438 -15.445312 9.96875 -15.363281 9.9375 -15.25 C 9.914062 -15.144531 9.867188 -15.054688 9.796875 -14.984375 C 9.722656 -14.710938 9.648438 -14.429688 9.578125 -14.140625 C 9.503906 -13.859375 9.410156 -13.5625 9.296875 -13.25 C 9.160156 -12.875 9.03125 -12.5 8.90625 -12.125 C 8.78125 -11.757812 8.671875 -11.382812 8.578125 -11 C 8.097656 -9.488281 7.578125 -8.003906 7.015625 -6.546875 C 6.453125 -5.097656 5.90625 -3.597656 5.375 -2.046875 C 5.226562 -1.671875 5.070312 -1.316406 4.90625 -0.984375 C 4.75 -0.648438 4.613281 -0.273438 4.5 0.140625 C 4.34375 0.515625 4.191406 0.898438 4.046875 1.296875 C 3.910156 1.691406 3.691406 2.003906 3.390625 2.234375 C 3.347656 2.285156 3.285156 2.320312 3.203125 2.34375 C 3.117188 2.375 3.023438 2.40625 2.921875 2.4375 C 2.828125 2.476562 2.71875 2.507812 2.59375 2.53125 C 2.476562 2.550781 2.390625 2.554688 2.328125 2.546875 C 2.203125 2.546875 1.992188 2.46875 1.703125 2.3125 C 1.421875 2.164062 1.210938 2.0625 1.078125 2 C 0.972656 1.914062 0.882812 1.835938 0.8125 1.765625 C 0.738281 1.691406 0.640625 1.625 0.515625 1.5625 C 0.453125 1.445312 0.375 1.351562 0.28125 1.28125 C 0.195312 1.21875 0.113281 1.144531 0.03125 1.0625 C -0.0390625 0.96875 -0.0976562 0.859375 -0.140625 0.734375 C -0.191406 0.617188 -0.238281 0.515625 -0.28125 0.421875 C -0.4375 -0.0546875 -0.519531 -0.570312 -0.53125 -1.125 C -0.550781 -1.675781 -0.582031 -2.164062 -0.625 -2.59375 C -0.738281 -4.25 -0.78125 -5.878906 -0.75 -7.484375 C -0.71875 -9.085938 -0.664062 -10.675781 -0.59375 -12.25 L -0.5625 -13 C -0.507812 -13.78125 -0.425781 -14.710938 -0.3125 -15.796875 C -0.207031 -16.878906 -0.0859375 -17.953125 0.046875 -19.015625 C 0.179688 -20.078125 0.285156 -20.960938 0.359375 -21.671875 C 0.429688 -22.492188 0.515625 -23.296875 0.609375 -24.078125 C 0.710938 -24.867188 0.804688 -25.679688 0.890625 -26.515625 C 0.929688 -26.796875 0.984375 -27.070312 1.046875 -27.34375 C 1.117188 -27.625 1.144531 -27.878906 1.125 -28.109375 C 1.132812 -28.253906 1.125 -28.40625 1.09375 -28.5625 C 1.070312 -28.71875 1.0625 -28.878906 1.0625 -29.046875 C 1.070312 -29.335938 1.078125 -29.566406 1.078125 -29.734375 C 1.078125 -29.898438 1.242188 -30.0625 1.578125 -30.21875 L 1.703125 -30.25 C 1.867188 -30.300781 2.03125 -30.328125 2.1875 -30.328125 L 2.84375 -30.375 C 2.957031 -30.382812 3.101562 -30.421875 3.28125 -30.484375 L 3.96875 -30.71875 C 4.84375 -30.988281 5.675781 -31.023438 6.46875 -30.828125 C 7.257812 -30.640625 7.8125 -30.125 8.125 -29.28125 L 8.171875 -29.125 C 8.410156 -28.4375 8.410156 -27.804688 8.171875 -27.234375 C 7.929688 -26.671875 7.707031 -26.15625 7.5 -25.6875 C 7.175781 -24.863281 6.867188 -23.863281 6.578125 -22.6875 C 6.285156 -21.519531 6.015625 -20.320312 5.765625 -19.09375 C 5.515625 -17.863281 5.289062 -16.753906 5.09375 -15.765625 L 4.984375 -15.0625 C 4.929688 -14.851562 4.878906 -14.644531 4.828125 -14.4375 C 4.773438 -14.226562 4.734375 -14.003906 4.703125 -13.765625 C 4.523438 -12.492188 4.320312 -11.144531 4.09375 -9.71875 C 3.875 -8.289062 3.796875 -6.875 3.859375 -5.46875 Z M 3.859375 -5.46875 "/></g></g></g><g fill="#ffffff" fill-opacity="0.4"><g transform="translate(50.670725, 42.92989)"><g><path d="M 5.4375 -1.859375 C 5.882812 -2.316406 6.320312 -2.753906 6.75 -3.171875 C 7.175781 -3.585938 7.597656 -4.023438 8.015625 -4.484375 C 10.296875 -7.191406 12.273438 -9.867188 13.953125 -12.515625 C 15.640625 -15.160156 16.835938 -18.007812 17.546875 -21.0625 C 17.691406 -21.613281 17.828125 -22.242188 17.953125 -22.953125 C 18.078125 -23.671875 18.085938 -24.328125 17.984375 -24.921875 C 17.941406 -25.171875 17.867188 -25.40625 17.765625 -25.625 C 17.660156 -25.851562 17.515625 -26.039062 17.328125 -26.1875 C 16.617188 -26.601562 15.675781 -26.757812 14.5 -26.65625 C 13.332031 -26.550781 12.207031 -26.40625 11.125 -26.21875 L 11.15625 -26.0625 C 11.175781 -25.914062 11.222656 -25.769531 11.296875 -25.625 C 11.378906 -25.476562 11.441406 -25.300781 11.484375 -25.09375 L 11.515625 -24.875 C 11.535156 -24.65625 11.503906 -24.429688 11.421875 -24.203125 C 11.335938 -23.984375 11.171875 -23.59375 10.921875 -23.03125 C 10.679688 -22.46875 10.335938 -21.582031 9.890625 -20.375 C 9.285156 -18.726562 8.757812 -17.25 8.3125 -15.9375 C 7.863281 -14.632812 7.378906 -13.28125 6.859375 -11.875 C 6.035156 -9.71875 5.300781 -7.6875 4.65625 -5.78125 C 4.007812 -3.875 3.332031 -1.875 2.625 0.21875 C 3.164062 -0.132812 3.660156 -0.460938 4.109375 -0.765625 C 4.554688 -1.078125 5 -1.441406 5.4375 -1.859375 Z M 5.515625 -25.265625 C 5.359375 -25.242188 5.140625 -25.179688 4.859375 -25.078125 C 4.585938 -24.972656 4.265625 -24.863281 3.890625 -24.75 C 3.796875 -24.707031 3.703125 -24.675781 3.609375 -24.65625 C 3.523438 -24.644531 3.445312 -24.632812 3.375 -24.625 C 2.601562 -24.488281 2.039062 -24.660156 1.6875 -25.140625 C 1.632812 -25.253906 1.570312 -25.390625 1.5 -25.546875 C 1.4375 -25.710938 1.367188 -25.878906 1.296875 -26.046875 C 1.242188 -26.179688 1.179688 -26.285156 1.109375 -26.359375 C 1.046875 -26.429688 1 -26.507812 0.96875 -26.59375 C 0.957031 -26.644531 0.9375 -26.695312 0.90625 -26.75 C 0.882812 -26.8125 0.867188 -26.859375 0.859375 -26.890625 C 0.828125 -27.097656 0.816406 -27.285156 0.828125 -27.453125 C 0.835938 -27.628906 0.832031 -27.835938 0.8125 -28.078125 C 0.882812 -28.191406 0.9375 -28.300781 0.96875 -28.40625 C 1.007812 -28.519531 1.078125 -28.625 1.171875 -28.71875 C 1.273438 -28.71875 1.375 -28.71875 1.46875 -28.71875 C 1.570312 -28.71875 1.675781 -28.726562 1.78125 -28.75 C 2.03125 -28.789062 2.28125 -28.859375 2.53125 -28.953125 C 2.78125 -29.046875 2.988281 -29.125 3.15625 -29.1875 L 3.171875 -29.109375 C 3.191406 -28.972656 3.144531 -28.890625 3.03125 -28.859375 C 2.925781 -28.835938 2.867188 -28.757812 2.859375 -28.625 C 3.734375 -28.90625 4.484375 -29.128906 5.109375 -29.296875 C 5.742188 -29.460938 6.359375 -29.59375 6.953125 -29.6875 C 7.546875 -29.789062 8.171875 -29.863281 8.828125 -29.90625 C 9.484375 -29.957031 10.296875 -29.992188 11.265625 -30.015625 C 12.734375 -30.035156 14.085938 -29.890625 15.328125 -29.578125 C 15.929688 -29.410156 16.488281 -29.175781 17 -28.875 C 17.507812 -28.582031 18.007812 -28.257812 18.5 -27.90625 C 18.976562 -27.5625 19.4375 -27.171875 19.875 -26.734375 C 20.320312 -26.296875 20.691406 -25.8125 20.984375 -25.28125 C 21.460938 -24.382812 21.800781 -23.367188 22 -22.234375 C 22.25 -20.773438 22.222656 -19.390625 21.921875 -18.078125 C 21.628906 -16.796875 21.273438 -15.660156 20.859375 -14.671875 C 20.441406 -13.691406 19.90625 -12.722656 19.25 -11.765625 C 18.445312 -10.566406 17.710938 -9.484375 17.046875 -8.515625 C 16.390625 -7.554688 15.660156 -6.597656 14.859375 -5.640625 C 14.054688 -4.679688 13.0625 -3.597656 11.875 -2.390625 C 11.4375 -2.046875 11.0625 -1.71875 10.75 -1.40625 C 10.445312 -1.101562 10.117188 -0.785156 9.765625 -0.453125 C 9.421875 -0.117188 8.953125 0.300781 8.359375 0.8125 C 7.265625 1.707031 6.109375 2.515625 4.890625 3.234375 C 4.597656 3.390625 4.414062 3.539062 4.34375 3.6875 C 4.28125 3.832031 4.144531 3.925781 3.9375 3.96875 C 3.914062 3.96875 3.867188 3.972656 3.796875 3.984375 C 3.734375 3.992188 3.664062 3.992188 3.59375 3.984375 C 3.445312 3.984375 3.304688 3.957031 3.171875 3.90625 C 3.035156 3.863281 2.90625 3.84375 2.78125 3.84375 C 2.550781 3.78125 2.34375 3.695312 2.15625 3.59375 C 1.96875 3.488281 1.796875 3.359375 1.640625 3.203125 C 1.492188 3.015625 1.367188 2.832031 1.265625 2.65625 C 1.171875 2.476562 1.015625 2.410156 0.796875 2.453125 C 0.765625 2.460938 0.734375 2.472656 0.703125 2.484375 C 0.679688 2.492188 0.644531 2.503906 0.59375 2.515625 L -0.046875 1.828125 C -0.140625 1.710938 -0.253906 1.585938 -0.390625 1.453125 C -0.535156 1.328125 -0.648438 1.203125 -0.734375 1.078125 C -0.804688 0.960938 -0.878906 0.789062 -0.953125 0.5625 C -1.023438 0.34375 -1.097656 0.144531 -1.171875 -0.03125 C -1.203125 -0.132812 -1.234375 -0.273438 -1.265625 -0.453125 C -1.316406 -0.734375 -1.320312 -1.019531 -1.28125 -1.3125 C -1.238281 -1.613281 -1.203125 -1.898438 -1.171875 -2.171875 C -1.035156 -2.992188 -0.875 -3.8125 -0.6875 -4.625 C -0.507812 -5.4375 -0.3125 -6.203125 -0.09375 -6.921875 C 0.550781 -8.992188 1.175781 -11.007812 1.78125 -12.96875 C 2.382812 -14.9375 3.003906 -16.90625 3.640625 -18.875 C 4.015625 -19.96875 4.289062 -20.820312 4.46875 -21.4375 C 4.65625 -22.0625 4.800781 -22.5625 4.90625 -22.9375 C 5.007812 -23.3125 5.097656 -23.664062 5.171875 -24 C 5.253906 -24.332031 5.367188 -24.753906 5.515625 -25.265625 Z M 5.515625 -25.265625 "/></g></g></g><g fill="#ffffff" fill-opacity="0.4"><g transform="translate(71.203875, 39.656606)"><g/></g></g><g fill="#ffffff" fill-opacity="1"><g transform="translate(6.577822, 59.372472)"><g><path d="M 5.515625 -22.234375 L 5.5 -22.25 C 5.664062 -22.257812 5.828125 -22.285156 5.984375 -22.328125 C 6.140625 -22.378906 6.28125 -22.4375 6.40625 -22.5 C 7.050781 -22.832031 7.441406 -23.414062 7.578125 -24.25 C 7.710938 -25.082031 7.78125 -25.867188 7.78125 -26.609375 C 7.800781 -27.210938 7.796875 -27.851562 7.765625 -28.53125 C 7.734375 -29.21875 7.675781 -29.816406 7.59375 -30.328125 C 7.550781 -30.628906 7.46875 -30.90625 7.34375 -31.15625 C 7.09375 -31.644531 6.816406 -31.847656 6.515625 -31.765625 L 6.40625 -31.703125 C 6.238281 -31.617188 6.097656 -31.476562 5.984375 -31.28125 C 5.878906 -31.09375 5.796875 -30.953125 5.734375 -30.859375 C 5.046875 -29.628906 4.484375 -28.269531 4.046875 -26.78125 C 3.617188 -25.300781 3.253906 -23.878906 2.953125 -22.515625 C 2.835938 -22.046875 2.726562 -21.582031 2.625 -21.125 C 2.53125 -20.664062 2.457031 -20.203125 2.40625 -19.734375 C 2.25 -18.222656 2.128906 -16.71875 2.046875 -15.21875 C 1.960938 -13.726562 1.96875 -12.273438 2.0625 -10.859375 C 2.113281 -9.898438 2.210938 -8.992188 2.359375 -8.140625 C 2.503906 -7.285156 2.675781 -6.441406 2.875 -5.609375 C 2.957031 -5.222656 3.082031 -4.796875 3.25 -4.328125 C 3.414062 -3.859375 3.613281 -3.398438 3.84375 -2.953125 C 4.09375 -2.472656 4.34375 -2.097656 4.59375 -1.828125 C 4.75 -1.640625 4.894531 -1.492188 5.03125 -1.390625 C 5.175781 -1.285156 5.363281 -1.296875 5.59375 -1.421875 C 5.71875 -1.484375 5.804688 -1.546875 5.859375 -1.609375 C 6.148438 -1.816406 6.425781 -2.148438 6.6875 -2.609375 C 6.957031 -3.066406 7.160156 -3.445312 7.296875 -3.75 C 7.484375 -4.175781 7.679688 -4.597656 7.890625 -5.015625 C 8.109375 -5.429688 8.285156 -5.816406 8.421875 -6.171875 C 8.679688 -6.753906 8.867188 -7.28125 8.984375 -7.75 C 9.109375 -8.21875 9.242188 -8.828125 9.390625 -9.578125 C 9.472656 -9.953125 9.53125 -10.378906 9.5625 -10.859375 C 9.601562 -11.347656 9.609375 -11.742188 9.578125 -12.046875 C 8.960938 -11.796875 8.4375 -11.679688 8 -11.703125 C 7.570312 -11.734375 7.109375 -11.835938 6.609375 -12.015625 C 6.523438 -12.066406 6.4375 -12.117188 6.34375 -12.171875 C 6.257812 -12.222656 6.171875 -12.285156 6.078125 -12.359375 C 5.847656 -12.453125 5.632812 -12.53125 5.4375 -12.59375 C 5.238281 -12.664062 5.078125 -12.773438 4.953125 -12.921875 C 4.867188 -13.023438 4.785156 -13.132812 4.703125 -13.25 C 4.617188 -13.363281 4.523438 -13.457031 4.421875 -13.53125 C 4.367188 -13.550781 4.300781 -13.570312 4.21875 -13.59375 C 4.144531 -13.613281 4.09375 -13.660156 4.0625 -13.734375 L 4.015625 -13.8125 C 4.023438 -13.894531 4.101562 -13.984375 4.25 -14.078125 C 4.394531 -14.171875 4.503906 -14.234375 4.578125 -14.265625 C 4.984375 -14.421875 5.410156 -14.515625 5.859375 -14.546875 C 6.304688 -14.585938 6.734375 -14.675781 7.140625 -14.8125 C 7.253906 -14.820312 7.359375 -14.832031 7.453125 -14.84375 C 7.554688 -14.851562 7.660156 -14.890625 7.765625 -14.953125 L 7.984375 -15.0625 C 8.285156 -15.21875 8.585938 -15.40625 8.890625 -15.625 C 9.203125 -15.84375 9.503906 -16.039062 9.796875 -16.21875 C 10.171875 -16.457031 10.523438 -16.675781 10.859375 -16.875 C 11.191406 -17.070312 11.523438 -17.28125 11.859375 -17.5 C 12.210938 -17.738281 12.53125 -17.953125 12.8125 -18.140625 C 13.101562 -18.328125 13.398438 -18.5 13.703125 -18.65625 C 13.984375 -18.800781 14.25 -18.960938 14.5 -19.140625 C 14.757812 -19.316406 15.015625 -19.472656 15.265625 -19.609375 L 15.578125 -19.765625 C 15.847656 -19.859375 16.015625 -19.835938 16.078125 -19.703125 C 16.128906 -19.609375 16.164062 -19.53125 16.1875 -19.46875 C 16.226562 -19.25 16.265625 -19.117188 16.296875 -19.078125 C 16.304688 -18.878906 16.257812 -18.675781 16.15625 -18.46875 C 16.050781 -18.269531 15.957031 -18.0625 15.875 -17.84375 C 15.863281 -17.632812 15.835938 -17.488281 15.796875 -17.40625 C 15.765625 -17.332031 15.710938 -17.234375 15.640625 -17.109375 C 15.640625 -17.109375 15.628906 -17.066406 15.609375 -16.984375 C 15.460938 -16.742188 15.367188 -16.550781 15.328125 -16.40625 C 15.285156 -16.257812 15.222656 -16.117188 15.140625 -15.984375 C 15.066406 -15.847656 14.894531 -15.648438 14.625 -15.390625 C 14.550781 -14.617188 14.484375 -14.09375 14.421875 -13.8125 C 14.359375 -13.539062 14.316406 -13.195312 14.296875 -12.78125 C 14.253906 -12.050781 14.191406 -11.347656 14.109375 -10.671875 C 14.035156 -9.992188 13.972656 -9.3125 13.921875 -8.625 C 13.878906 -8.132812 13.828125 -7.601562 13.765625 -7.03125 C 13.710938 -6.46875 13.648438 -5.96875 13.578125 -5.53125 C 13.503906 -4.5 13.40625 -3.546875 13.28125 -2.671875 C 13.15625 -1.804688 13.128906 -0.835938 13.203125 0.234375 C 13.242188 0.335938 13.265625 0.484375 13.265625 0.671875 C 13.273438 0.859375 13.332031 1.082031 13.4375 1.34375 C 13.476562 1.414062 13.425781 1.488281 13.28125 1.5625 C 13.125 1.644531 12.835938 1.664062 12.421875 1.625 C 12.003906 1.59375 11.644531 1.414062 11.34375 1.09375 C 11.226562 0.988281 11.109375 0.847656 10.984375 0.671875 C 10.867188 0.492188 10.757812 0.316406 10.65625 0.140625 C 10.457031 -0.253906 10.285156 -0.660156 10.140625 -1.078125 C 10.003906 -1.492188 9.875 -1.851562 9.75 -2.15625 C 9.382812 -1.613281 8.957031 -1.078125 8.46875 -0.546875 C 7.976562 -0.0234375 7.429688 0.390625 6.828125 0.703125 C 6.691406 0.765625 6.554688 0.828125 6.421875 0.890625 C 6.285156 0.953125 6.144531 1.003906 6 1.046875 C 5.53125 1.171875 5.117188 1.203125 4.765625 1.140625 C 4.421875 1.085938 4.054688 1 3.671875 0.875 C 3.484375 0.820312 3.300781 0.769531 3.125 0.71875 C 2.957031 0.664062 2.785156 0.609375 2.609375 0.546875 C 1.929688 0.253906 1.304688 -0.171875 0.734375 -0.734375 C 0.171875 -1.296875 -0.347656 -2.019531 -0.828125 -2.90625 L -1.4375 -4.265625 C -1.914062 -5.304688 -2.265625 -6.363281 -2.484375 -7.4375 C -2.710938 -8.519531 -2.890625 -9.5625 -3.015625 -10.5625 C -3.253906 -12.613281 -3.347656 -14.578125 -3.296875 -16.453125 C -3.222656 -17.429688 -3.164062 -18.257812 -3.125 -18.9375 C -3.082031 -19.613281 -3.015625 -20.285156 -2.921875 -20.953125 C -2.828125 -21.617188 -2.671875 -22.40625 -2.453125 -23.3125 C -2.304688 -24.144531 -2.101562 -24.953125 -1.84375 -25.734375 C -1.582031 -26.515625 -1.300781 -27.257812 -1 -27.96875 C -0.71875 -28.71875 -0.347656 -29.457031 0.109375 -30.1875 C 0.578125 -30.914062 1.0625 -31.5 1.5625 -31.9375 C 1.800781 -32.164062 2.066406 -32.378906 2.359375 -32.578125 C 2.660156 -32.773438 2.9375 -33 3.1875 -33.25 L 3.46875 -33.390625 C 4 -33.660156 4.65625 -33.820312 5.4375 -33.875 C 6.21875 -33.925781 7 -33.914062 7.78125 -33.84375 C 8.5625 -33.78125 9.203125 -33.695312 9.703125 -33.59375 C 10.066406 -33.488281 10.398438 -33.328125 10.703125 -33.109375 C 11.015625 -32.890625 11.28125 -32.570312 11.5 -32.15625 C 11.539062 -32.0625 11.582031 -31.945312 11.625 -31.8125 C 11.675781 -31.675781 11.726562 -31.546875 11.78125 -31.421875 C 11.832031 -31.253906 11.898438 -31.078125 11.984375 -30.890625 C 12.066406 -30.710938 12.132812 -30.519531 12.1875 -30.3125 C 12.320312 -29.6875 12.40625 -29.085938 12.4375 -28.515625 C 12.46875 -27.941406 12.460938 -27.296875 12.421875 -26.578125 C 12.378906 -25.972656 12.300781 -25.316406 12.1875 -24.609375 C 12.070312 -23.898438 11.867188 -23.253906 11.578125 -22.671875 C 11.285156 -22.097656 10.859375 -21.664062 10.296875 -21.375 C 9.648438 -21.039062 8.945312 -20.898438 8.1875 -20.953125 C 7.4375 -21.003906 6.796875 -21.175781 6.265625 -21.46875 L 6.234375 -21.53125 C 6.117188 -21.738281 5.976562 -21.890625 5.8125 -21.984375 C 5.65625 -22.078125 5.554688 -22.160156 5.515625 -22.234375 Z M 5.515625 -22.234375 "/></g></g></g><g fill="#ffffff" fill-opacity="1"><g transform="translate(24.879342, 49.647403)"><g><path d="M 3.859375 -5.46875 C 3.960938 -5.625 4.054688 -5.800781 4.140625 -6 C 4.234375 -6.195312 4.328125 -6.410156 4.421875 -6.640625 C 5.441406 -9.472656 6.492188 -12.585938 7.578125 -15.984375 C 8.671875 -19.390625 9.789062 -22.851562 10.9375 -26.375 C 11.039062 -26.71875 11.160156 -27.0625 11.296875 -27.40625 C 11.429688 -27.75 11.484375 -28.132812 11.453125 -28.5625 C 11.453125 -28.726562 11.429688 -28.890625 11.390625 -29.046875 C 11.359375 -29.203125 11.375 -29.34375 11.4375 -29.46875 C 11.5 -29.601562 11.609375 -29.722656 11.765625 -29.828125 C 11.921875 -29.929688 12.070312 -30.007812 12.21875 -30.0625 L 12.328125 -30.09375 C 12.503906 -30.15625 12.679688 -30.1875 12.859375 -30.1875 C 13.046875 -30.195312 13.210938 -30.210938 13.359375 -30.234375 C 13.710938 -30.328125 14.070312 -30.421875 14.4375 -30.515625 C 14.8125 -30.609375 15.117188 -30.585938 15.359375 -30.453125 C 15.535156 -30.316406 15.71875 -30.164062 15.90625 -30 C 16.09375 -29.84375 16.234375 -29.632812 16.328125 -29.375 C 16.359375 -29.289062 16.378906 -29.210938 16.390625 -29.140625 C 16.398438 -29.066406 16.40625 -28.988281 16.40625 -28.90625 C 16.425781 -28.664062 16.421875 -28.410156 16.390625 -28.140625 C 16.359375 -27.867188 16.320312 -27.585938 16.28125 -27.296875 C 16.226562 -26.546875 16.132812 -25.757812 16 -24.9375 C 15.863281 -24.125 15.796875 -23.316406 15.796875 -22.515625 C 15.785156 -22.265625 15.769531 -21.863281 15.75 -21.3125 C 15.738281 -20.757812 15.710938 -20.207031 15.671875 -19.65625 C 15.640625 -19.101562 15.617188 -18.703125 15.609375 -18.453125 C 15.578125 -17.753906 15.539062 -17.03125 15.5 -16.28125 C 15.46875 -15.53125 15.457031 -14.796875 15.46875 -14.078125 C 15.476562 -12.984375 15.492188 -11.929688 15.515625 -10.921875 C 15.535156 -9.921875 15.554688 -9.050781 15.578125 -8.3125 C 15.742188 -8.488281 15.867188 -8.675781 15.953125 -8.875 C 16.046875 -9.070312 16.109375 -9.28125 16.140625 -9.5 L 16.1875 -9.625 C 17.40625 -13.519531 18.363281 -17.660156 19.0625 -22.046875 C 19.769531 -26.429688 20.457031 -30.894531 21.125 -35.4375 C 21.175781 -35.78125 21.25 -36.101562 21.34375 -36.40625 C 21.4375 -36.71875 21.675781 -36.953125 22.0625 -37.109375 L 22.125 -37.125 C 22.644531 -37.21875 23.226562 -37.316406 23.875 -37.421875 C 24.53125 -37.535156 24.976562 -37.394531 25.21875 -37 C 25.269531 -36.957031 25.3125 -36.890625 25.34375 -36.796875 C 25.40625 -36.628906 25.429688 -36.445312 25.421875 -36.25 C 25.410156 -36.0625 25.414062 -35.859375 25.4375 -35.640625 C 25.195312 -34.972656 24.957031 -34.1875 24.71875 -33.28125 C 24.488281 -32.382812 24.273438 -31.523438 24.078125 -30.703125 C 23.878906 -29.890625 23.726562 -29.234375 23.625 -28.734375 C 23.507812 -28.109375 23.34375 -27.316406 23.125 -26.359375 C 22.914062 -25.398438 22.703125 -24.4375 22.484375 -23.46875 C 22.273438 -22.5 22.101562 -21.6875 21.96875 -21.03125 C 21.820312 -20.382812 21.679688 -19.734375 21.546875 -19.078125 C 21.410156 -18.429688 21.289062 -17.804688 21.1875 -17.203125 C 20.957031 -15.921875 20.703125 -14.628906 20.421875 -13.328125 C 20.140625 -12.035156 19.851562 -10.769531 19.5625 -9.53125 C 19.46875 -9.21875 19.382812 -8.898438 19.3125 -8.578125 C 19.25 -8.253906 19.171875 -7.9375 19.078125 -7.625 C 18.960938 -7.3125 18.875 -7.003906 18.8125 -6.703125 C 18.75 -6.410156 18.664062 -6.09375 18.5625 -5.75 L 18.015625 -3.90625 C 17.890625 -3.488281 17.753906 -3.050781 17.609375 -2.59375 C 17.472656 -2.132812 17.238281 -1.785156 16.90625 -1.546875 C 16.820312 -1.484375 16.628906 -1.398438 16.328125 -1.296875 C 16.179688 -1.253906 16.03125 -1.210938 15.875 -1.171875 C 15.726562 -1.140625 15.601562 -1.117188 15.5 -1.109375 C 15.164062 -1.128906 14.835938 -1.179688 14.515625 -1.265625 C 14.191406 -1.359375 13.894531 -1.453125 13.625 -1.546875 C 13.519531 -1.597656 13.414062 -1.632812 13.3125 -1.65625 C 13.207031 -1.6875 13.109375 -1.707031 13.015625 -1.71875 C 12.503906 -1.925781 12.085938 -2.3125 11.765625 -2.875 C 11.441406 -3.4375 11.164062 -4.054688 10.9375 -4.734375 L 10.71875 -5.390625 C 10.53125 -6.023438 10.398438 -6.628906 10.328125 -7.203125 C 10.253906 -7.785156 10.210938 -8.351562 10.203125 -8.90625 C 10.179688 -10.050781 10.179688 -11.15625 10.203125 -12.21875 C 10.234375 -13.28125 10.203125 -14.375 10.109375 -15.5 C 10.023438 -15.445312 9.96875 -15.363281 9.9375 -15.25 C 9.914062 -15.144531 9.867188 -15.054688 9.796875 -14.984375 C 9.722656 -14.710938 9.648438 -14.429688 9.578125 -14.140625 C 9.503906 -13.859375 9.410156 -13.5625 9.296875 -13.25 C 9.160156 -12.875 9.03125 -12.5 8.90625 -12.125 C 8.78125 -11.757812 8.671875 -11.382812 8.578125 -11 C 8.097656 -9.488281 7.578125 -8.003906 7.015625 -6.546875 C 6.453125 -5.097656 5.90625 -3.597656 5.375 -2.046875 C 5.226562 -1.671875 5.070312 -1.316406 4.90625 -0.984375 C 4.75 -0.648438 4.613281 -0.273438 4.5 0.140625 C 4.34375 0.515625 4.191406 0.898438 4.046875 1.296875 C 3.910156 1.691406 3.691406 2.003906 3.390625 2.234375 C 3.347656 2.285156 3.285156 2.320312 3.203125 2.34375 C 3.117188 2.375 3.023438 2.40625 2.921875 2.4375 C 2.828125 2.476562 2.71875 2.507812 2.59375 2.53125 C 2.476562 2.550781 2.390625 2.554688 2.328125 2.546875 C 2.203125 2.546875 1.992188 2.46875 1.703125 2.3125 C 1.421875 2.164062 1.210938 2.0625 1.078125 2 C 0.972656 1.914062 0.882812 1.835938 0.8125 1.765625 C 0.738281 1.691406 0.640625 1.625 0.515625 1.5625 C 0.453125 1.445312 0.375 1.351562 0.28125 1.28125 C 0.195312 1.21875 0.113281 1.144531 0.03125 1.0625 C -0.0390625 0.96875 -0.0976562 0.859375 -0.140625 0.734375 C -0.191406 0.617188 -0.238281 0.515625 -0.28125 0.421875 C -0.4375 -0.0546875 -0.519531 -0.570312 -0.53125 -1.125 C -0.550781 -1.675781 -0.582031 -2.164062 -0.625 -2.59375 C -0.738281 -4.25 -0.78125 -5.878906 -0.75 -7.484375 C -0.71875 -9.085938 -0.664062 -10.675781 -0.59375 -12.25 L -0.5625 -13 C -0.507812 -13.78125 -0.425781 -14.710938 -0.3125 -15.796875 C -0.207031 -16.878906 -0.0859375 -17.953125 0.046875 -19.015625 C 0.179688 -20.078125 0.285156 -20.960938 0.359375 -21.671875 C 0.429688 -22.492188 0.515625 -23.296875 0.609375 -24.078125 C 0.710938 -24.867188 0.804688 -25.679688 0.890625 -26.515625 C 0.929688 -26.796875 0.984375 -27.070312 1.046875 -27.34375 C 1.117188 -27.625 1.144531 -27.878906 1.125 -28.109375 C 1.132812 -28.253906 1.125 -28.40625 1.09375 -28.5625 C 1.070312 -28.71875 1.0625 -28.878906 1.0625 -29.046875 C 1.070312 -29.335938 1.078125 -29.566406 1.078125 -29.734375 C 1.078125 -29.898438 1.242188 -30.0625 1.578125 -30.21875 L 1.703125 -30.25 C 1.867188 -30.300781 2.03125 -30.328125 2.1875 -30.328125 L 2.84375 -30.375 C 2.957031 -30.382812 3.101562 -30.421875 3.28125 -30.484375 L 3.96875 -30.71875 C 4.84375 -30.988281 5.675781 -31.023438 6.46875 -30.828125 C 7.257812 -30.640625 7.8125 -30.125 8.125 -29.28125 L 8.171875 -29.125 C 8.410156 -28.4375 8.410156 -27.804688 8.171875 -27.234375 C 7.929688 -26.671875 7.707031 -26.15625 7.5 -25.6875 C 7.175781 -24.863281 6.867188 -23.863281 6.578125 -22.6875 C 6.285156 -21.519531 6.015625 -20.320312 5.765625 -19.09375 C 5.515625 -17.863281 5.289062 -16.753906 5.09375 -15.765625 L 4.984375 -15.0625 C 4.929688 -14.851562 4.878906 -14.644531 4.828125 -14.4375 C 4.773438 -14.226562 4.734375 -14.003906 4.703125 -13.765625 C 4.523438 -12.492188 4.320312 -11.144531 4.09375 -9.71875 C 3.875 -8.289062 3.796875 -6.875 3.859375 -5.46875 Z M 3.859375 -5.46875 "/></g></g></g><g fill="#ffffff" fill-opacity="1"><g transform="translate(48.503485, 41.804241)"><g><path d="M 5.4375 -1.859375 C 5.882812 -2.316406 6.320312 -2.753906 6.75 -3.171875 C 7.175781 -3.585938 7.597656 -4.023438 8.015625 -4.484375 C 10.296875 -7.191406 12.273438 -9.867188 13.953125 -12.515625 C 15.640625 -15.160156 16.835938 -18.007812 17.546875 -21.0625 C 17.691406 -21.613281 17.828125 -22.242188 17.953125 -22.953125 C 18.078125 -23.671875 18.085938 -24.328125 17.984375 -24.921875 C 17.941406 -25.171875 17.867188 -25.40625 17.765625 -25.625 C 17.660156 -25.851562 17.515625 -26.039062 17.328125 -26.1875 C 16.617188 -26.601562 15.675781 -26.757812 14.5 -26.65625 C 13.332031 -26.550781 12.207031 -26.40625 11.125 -26.21875 L 11.15625 -26.0625 C 11.175781 -25.914062 11.222656 -25.769531 11.296875 -25.625 C 11.378906 -25.476562 11.441406 -25.300781 11.484375 -25.09375 L 11.515625 -24.875 C 11.535156 -24.65625 11.503906 -24.429688 11.421875 -24.203125 C 11.335938 -23.984375 11.171875 -23.59375 10.921875 -23.03125 C 10.679688 -22.46875 10.335938 -21.582031 9.890625 -20.375 C 9.285156 -18.726562 8.757812 -17.25 8.3125 -15.9375 C 7.863281 -14.632812 7.378906 -13.28125 6.859375 -11.875 C 6.035156 -9.71875 5.300781 -7.6875 4.65625 -5.78125 C 4.007812 -3.875 3.332031 -1.875 2.625 0.21875 C 3.164062 -0.132812 3.660156 -0.460938 4.109375 -0.765625 C 4.554688 -1.078125 5 -1.441406 5.4375 -1.859375 Z M 5.515625 -25.265625 C 5.359375 -25.242188 5.140625 -25.179688 4.859375 -25.078125 C 4.585938 -24.972656 4.265625 -24.863281 3.890625 -24.75 C 3.796875 -24.707031 3.703125 -24.675781 3.609375 -24.65625 C 3.523438 -24.644531 3.445312 -24.632812 3.375 -24.625 C 2.601562 -24.488281 2.039062 -24.660156 1.6875 -25.140625 C 1.632812 -25.253906 1.570312 -25.390625 1.5 -25.546875 C 1.4375 -25.710938 1.367188 -25.878906 1.296875 -26.046875 C 1.242188 -26.179688 1.179688 -26.285156 1.109375 -26.359375 C 1.046875 -26.429688 1 -26.507812 0.96875 -26.59375 C 0.957031 -26.644531 0.9375 -26.695312 0.90625 -26.75 C 0.882812 -26.8125 0.867188 -26.859375 0.859375 -26.890625 C 0.828125 -27.097656 0.816406 -27.285156 0.828125 -27.453125 C 0.835938 -27.628906 0.832031 -27.835938 0.8125 -28.078125 C 0.882812 -28.191406 0.9375 -28.300781 0.96875 -28.40625 C 1.007812 -28.519531 1.078125 -28.625 1.171875 -28.71875 C 1.273438 -28.71875 1.375 -28.71875 1.46875 -28.71875 C 1.570312 -28.71875 1.675781 -28.726562 1.78125 -28.75 C 2.03125 -28.789062 2.28125 -28.859375 2.53125 -28.953125 C 2.78125 -29.046875 2.988281 -29.125 3.15625 -29.1875 L 3.171875 -29.109375 C 3.191406 -28.972656 3.144531 -28.890625 3.03125 -28.859375 C 2.925781 -28.835938 2.867188 -28.757812 2.859375 -28.625 C 3.734375 -28.90625 4.484375 -29.128906 5.109375 -29.296875 C 5.742188 -29.460938 6.359375 -29.59375 6.953125 -29.6875 C 7.546875 -29.789062 8.171875 -29.863281 8.828125 -29.90625 C 9.484375 -29.957031 10.296875 -29.992188 11.265625 -30.015625 C 12.734375 -30.035156 14.085938 -29.890625 15.328125 -29.578125 C 15.929688 -29.410156 16.488281 -29.175781 17 -28.875 C 17.507812 -28.582031 18.007812 -28.257812 18.5 -27.90625 C 18.976562 -27.5625 19.4375 -27.171875 19.875 -26.734375 C 20.320312 -26.296875 20.691406 -25.8125 20.984375 -25.28125 C 21.460938 -24.382812 21.800781 -23.367188 22 -22.234375 C 22.25 -20.773438 22.222656 -19.390625 21.921875 -18.078125 C 21.628906 -16.796875 21.273438 -15.660156 20.859375 -14.671875 C 20.441406 -13.691406 19.90625 -12.722656 19.25 -11.765625 C 18.445312 -10.566406 17.710938 -9.484375 17.046875 -8.515625 C 16.390625 -7.554688 15.660156 -6.597656 14.859375 -5.640625 C 14.054688 -4.679688 13.0625 -3.597656 11.875 -2.390625 C 11.4375 -2.046875 11.0625 -1.71875 10.75 -1.40625 C 10.445312 -1.101562 10.117188 -0.785156 9.765625 -0.453125 C 9.421875 -0.117188 8.953125 0.300781 8.359375 0.8125 C 7.265625 1.707031 6.109375 2.515625 4.890625 3.234375 C 4.597656 3.390625 4.414062 3.539062 4.34375 3.6875 C 4.28125 3.832031 4.144531 3.925781 3.9375 3.96875 C 3.914062 3.96875 3.867188 3.972656 3.796875 3.984375 C 3.734375 3.992188 3.664062 3.992188 3.59375 3.984375 C 3.445312 3.984375 3.304688 3.957031 3.171875 3.90625 C 3.035156 3.863281 2.90625 3.84375 2.78125 3.84375 C 2.550781 3.78125 2.34375 3.695312 2.15625 3.59375 C 1.96875 3.488281 1.796875 3.359375 1.640625 3.203125 C 1.492188 3.015625 1.367188 2.832031 1.265625 2.65625 C 1.171875 2.476562 1.015625 2.410156 0.796875 2.453125 C 0.765625 2.460938 0.734375 2.472656 0.703125 2.484375 C 0.679688 2.492188 0.644531 2.503906 0.59375 2.515625 L -0.046875 1.828125 C -0.140625 1.710938 -0.253906 1.585938 -0.390625 1.453125 C -0.535156 1.328125 -0.648438 1.203125 -0.734375 1.078125 C -0.804688 0.960938 -0.878906 0.789062 -0.953125 0.5625 C -1.023438 0.34375 -1.097656 0.144531 -1.171875 -0.03125 C -1.203125 -0.132812 -1.234375 -0.273438 -1.265625 -0.453125 C -1.316406 -0.734375 -1.320312 -1.019531 -1.28125 -1.3125 C -1.238281 -1.613281 -1.203125 -1.898438 -1.171875 -2.171875 C -1.035156 -2.992188 -0.875 -3.8125 -0.6875 -4.625 C -0.507812 -5.4375 -0.3125 -6.203125 -0.09375 -6.921875 C 0.550781 -8.992188 1.175781 -11.007812 1.78125 -12.96875 C 2.382812 -14.9375 3.003906 -16.90625 3.640625 -18.875 C 4.015625 -19.96875 4.289062 -20.820312 4.46875 -21.4375 C 4.65625 -22.0625 4.800781 -22.5625 4.90625 -22.9375 C 5.007812 -23.3125 5.097656 -23.664062 5.171875 -24 C 5.253906 -24.332031 5.367188 -24.753906 5.515625 -25.265625 Z M 5.515625 -25.265625 "/></g></g></g><g fill="#ffffff" fill-opacity="1"><g transform="translate(69.036636, 38.530959)"><g/></g></g></svg>