<svg xmlns="http://www.w3.org/2000/svg" xmlns:xlink="http://www.w3.org/1999/xlink" width="100" zoomAndPan="magnify" viewBox="0 0 75 74.999997" height="100" preserveAspectRatio="xMidYMid meet" version="1.0"><defs><g/></defs><g fill="#ffffff" fill-opacity="0.4"><g transform="translate(24.445854, 64.094882)"><g><path d="M 16.09375 -38.65625 L 16.0625 -38.71875 C 16.363281 -38.675781 16.65625 -38.675781 16.9375 -38.71875 C 17.226562 -38.769531 17.488281 -38.832031 17.71875 -38.90625 C 18.976562 -39.332031 19.847656 -40.28125 20.328125 -41.75 C 20.816406 -43.226562 21.171875 -44.628906 21.390625 -45.953125 C 21.578125 -47.015625 21.738281 -48.171875 21.875 -49.421875 C 22.007812 -50.679688 22.066406 -51.785156 22.046875 -52.734375 C 22.054688 -53.285156 21.976562 -53.804688 21.8125 -54.296875 C 21.488281 -55.242188 21.039062 -55.675781 20.46875 -55.59375 L 20.265625 -55.53125 C 19.953125 -55.414062 19.671875 -55.203125 19.421875 -54.890625 C 19.179688 -54.585938 18.976562 -54.359375 18.8125 -54.203125 C 17.25 -52.160156 15.867188 -49.859375 14.671875 -47.296875 C 13.484375 -44.742188 12.429688 -42.28125 11.515625 -39.90625 C 11.179688 -39.082031 10.859375 -38.269531 10.546875 -37.46875 C 10.242188 -36.664062 9.988281 -35.847656 9.78125 -35.015625 C 9.0625 -32.328125 8.425781 -29.644531 7.875 -26.96875 C 7.320312 -24.289062 6.925781 -21.660156 6.6875 -19.078125 C 6.53125 -17.304688 6.46875 -15.632812 6.5 -14.0625 C 6.53125 -12.488281 6.609375 -10.921875 6.734375 -9.359375 C 6.785156 -8.609375 6.894531 -7.785156 7.0625 -6.890625 C 7.238281 -5.992188 7.472656 -5.125 7.765625 -4.28125 C 8.078125 -3.332031 8.425781 -2.59375 8.8125 -2.0625 C 9.03125 -1.6875 9.253906 -1.382812 9.484375 -1.15625 C 9.710938 -0.9375 10.050781 -0.898438 10.5 -1.046875 C 10.71875 -1.117188 10.894531 -1.207031 11.03125 -1.3125 C 11.625 -1.601562 12.21875 -2.125 12.8125 -2.875 C 13.414062 -3.632812 13.882812 -4.269531 14.21875 -4.78125 C 14.675781 -5.488281 15.148438 -6.1875 15.640625 -6.875 C 16.140625 -7.570312 16.566406 -8.234375 16.921875 -8.859375 C 17.546875 -9.828125 18.03125 -10.722656 18.375 -11.546875 C 18.726562 -12.367188 19.132812 -13.4375 19.59375 -14.75 C 19.84375 -15.382812 20.070312 -16.132812 20.28125 -17 C 20.488281 -17.875 20.59375 -18.59375 20.59375 -19.15625 C 19.445312 -18.863281 18.476562 -18.800781 17.6875 -18.96875 C 16.90625 -19.132812 16.082031 -19.445312 15.21875 -19.90625 C 15.09375 -20.007812 14.957031 -20.125 14.8125 -20.25 C 14.664062 -20.382812 14.519531 -20.523438 14.375 -20.671875 C 13.988281 -20.890625 13.625 -21.09375 13.28125 -21.28125 C 12.945312 -21.46875 12.6875 -21.707031 12.5 -22 C 12.363281 -22.207031 12.234375 -22.425781 12.109375 -22.65625 C 11.984375 -22.894531 11.847656 -23.085938 11.703125 -23.234375 C 11.617188 -23.316406 11.503906 -23.378906 11.359375 -23.421875 C 11.222656 -23.472656 11.128906 -23.570312 11.078125 -23.71875 L 11.03125 -23.84375 C 11.082031 -24 11.25 -24.140625 11.53125 -24.265625 C 11.820312 -24.390625 12.035156 -24.472656 12.171875 -24.515625 C 12.960938 -24.691406 13.769531 -24.753906 14.59375 -24.703125 C 15.414062 -24.648438 16.210938 -24.675781 16.984375 -24.78125 C 17.171875 -24.800781 17.351562 -24.800781 17.53125 -24.78125 C 17.71875 -24.757812 17.925781 -24.789062 18.15625 -24.875 L 18.5625 -25.015625 C 19.144531 -25.203125 19.75 -25.453125 20.375 -25.765625 C 21 -26.085938 21.59375 -26.367188 22.15625 -26.609375 C 22.90625 -26.960938 23.609375 -27.273438 24.265625 -27.546875 C 24.921875 -27.816406 25.582031 -28.085938 26.25 -28.359375 C 26.945312 -28.703125 27.578125 -29.003906 28.140625 -29.265625 C 28.703125 -29.535156 29.273438 -29.765625 29.859375 -29.953125 C 30.398438 -30.140625 30.929688 -30.359375 31.453125 -30.609375 C 31.972656 -30.859375 32.476562 -31.066406 32.96875 -31.234375 L 33.578125 -31.4375 C 34.085938 -31.550781 34.382812 -31.476562 34.46875 -31.21875 C 34.539062 -31.03125 34.578125 -30.863281 34.578125 -30.71875 C 34.617188 -30.320312 34.648438 -30.082031 34.671875 -30 C 34.648438 -29.632812 34.515625 -29.285156 34.265625 -28.953125 C 34.023438 -28.617188 33.796875 -28.265625 33.578125 -27.890625 C 33.503906 -27.515625 33.425781 -27.265625 33.34375 -27.140625 C 33.257812 -27.015625 33.125 -26.84375 32.9375 -26.625 C 32.9375 -26.625 32.90625 -26.5625 32.84375 -26.4375 C 32.539062 -26.03125 32.332031 -25.695312 32.21875 -25.4375 C 32.101562 -25.175781 31.953125 -24.9375 31.765625 -24.71875 C 31.585938 -24.507812 31.210938 -24.203125 30.640625 -23.796875 C 30.296875 -22.429688 30.03125 -21.503906 29.84375 -21.015625 C 29.65625 -20.523438 29.492188 -19.90625 29.359375 -19.15625 C 29.085938 -17.863281 28.785156 -16.617188 28.453125 -15.421875 C 28.128906 -14.234375 27.828125 -13.015625 27.546875 -11.765625 C 27.328125 -10.890625 27.085938 -9.953125 26.828125 -8.953125 C 26.566406 -7.960938 26.316406 -7.078125 26.078125 -6.296875 C 25.648438 -4.441406 25.203125 -2.742188 24.734375 -1.203125 C 24.273438 0.335938 23.972656 2.085938 23.828125 4.046875 C 23.835938 4.242188 23.820312 4.507812 23.78125 4.84375 C 23.738281 5.175781 23.785156 5.601562 23.921875 6.125 C 23.972656 6.25 23.859375 6.359375 23.578125 6.453125 C 23.265625 6.554688 22.738281 6.519531 22 6.34375 C 21.257812 6.164062 20.648438 5.753906 20.171875 5.109375 C 20.003906 4.867188 19.835938 4.570312 19.671875 4.21875 C 19.503906 3.875 19.359375 3.519531 19.234375 3.15625 C 18.972656 2.382812 18.773438 1.609375 18.640625 0.828125 C 18.503906 0.0546875 18.359375 -0.628906 18.203125 -1.234375 C 17.390625 -0.347656 16.46875 0.503906 15.4375 1.328125 C 14.414062 2.148438 13.316406 2.757812 12.140625 3.15625 C 11.867188 3.238281 11.601562 3.304688 11.34375 3.359375 C 11.09375 3.421875 10.820312 3.484375 10.53125 3.546875 C 9.664062 3.617188 8.921875 3.554688 8.296875 3.359375 C 7.679688 3.171875 7.046875 2.914062 6.390625 2.59375 C 6.085938 2.445312 5.78125 2.296875 5.46875 2.140625 C 5.164062 1.992188 4.863281 1.851562 4.5625 1.71875 C 3.425781 0.988281 2.421875 0.046875 1.546875 -1.109375 C 0.671875 -2.273438 -0.0820312 -3.734375 -0.71875 -5.484375 L -1.4375 -8.109375 C -2.019531 -10.117188 -2.359375 -12.125 -2.453125 -14.125 C -2.554688 -16.132812 -2.597656 -18.070312 -2.578125 -19.9375 C -2.441406 -23.695312 -2.0625 -27.265625 -1.4375 -30.640625 C -1.070312 -32.390625 -0.75 -33.867188 -0.46875 -35.078125 C -0.195312 -36.296875 0.113281 -37.492188 0.46875 -38.671875 C 0.832031 -39.847656 1.320312 -41.222656 1.9375 -42.796875 C 2.445312 -44.273438 3.039062 -45.679688 3.71875 -47.015625 C 4.40625 -48.347656 5.117188 -49.617188 5.859375 -50.828125 C 6.597656 -52.128906 7.476562 -53.367188 8.5 -54.546875 C 9.53125 -55.722656 10.570312 -56.632812 11.625 -57.28125 C 12.09375 -57.644531 12.625 -57.960938 13.21875 -58.234375 C 13.8125 -58.503906 14.363281 -58.828125 14.875 -59.203125 L 15.4375 -59.390625 C 16.46875 -59.734375 17.691406 -59.847656 19.109375 -59.734375 C 20.535156 -59.617188 21.945312 -59.390625 23.34375 -59.046875 C 24.75 -58.703125 25.875 -58.375 26.71875 -58.0625 C 27.363281 -57.789062 27.929688 -57.410156 28.421875 -56.921875 C 28.910156 -56.429688 29.296875 -55.773438 29.578125 -54.953125 C 29.640625 -54.773438 29.703125 -54.554688 29.765625 -54.296875 C 29.828125 -54.046875 29.875 -53.800781 29.90625 -53.5625 C 29.957031 -53.238281 30.03125 -52.898438 30.125 -52.546875 C 30.21875 -52.191406 30.285156 -51.820312 30.328125 -51.4375 C 30.410156 -50.269531 30.398438 -49.160156 30.296875 -48.109375 C 30.203125 -47.066406 30.019531 -45.90625 29.75 -44.625 C 29.507812 -43.53125 29.1875 -42.363281 28.78125 -41.125 C 28.375 -39.882812 27.828125 -38.78125 27.140625 -37.8125 C 26.453125 -36.851562 25.566406 -36.191406 24.484375 -35.828125 C 23.222656 -35.398438 21.914062 -35.335938 20.5625 -35.640625 C 19.207031 -35.941406 18.09375 -36.421875 17.21875 -37.078125 L 17.15625 -37.21875 C 17.019531 -37.625 16.816406 -37.929688 16.546875 -38.140625 C 16.285156 -38.347656 16.132812 -38.519531 16.09375 -38.65625 Z M 16.09375 -38.65625 "/></g></g></g><g fill="#ffffff" fill-opacity="0.4"><g transform="translate(61.511023, 52.227486)"><g/></g></g><g fill="#ffffff" fill-opacity="1"><g transform="translate(20.483036, 62.036624)"><g><path d="M 16.09375 -38.65625 L 16.0625 -38.71875 C 16.363281 -38.675781 16.65625 -38.675781 16.9375 -38.71875 C 17.226562 -38.769531 17.488281 -38.832031 17.71875 -38.90625 C 18.976562 -39.332031 19.847656 -40.28125 20.328125 -41.75 C 20.816406 -43.226562 21.171875 -44.628906 21.390625 -45.953125 C 21.578125 -47.015625 21.738281 -48.171875 21.875 -49.421875 C 22.007812 -50.679688 22.066406 -51.785156 22.046875 -52.734375 C 22.054688 -53.285156 21.976562 -53.804688 21.8125 -54.296875 C 21.488281 -55.242188 21.039062 -55.675781 20.46875 -55.59375 L 20.265625 -55.53125 C 19.953125 -55.414062 19.671875 -55.203125 19.421875 -54.890625 C 19.179688 -54.585938 18.976562 -54.359375 18.8125 -54.203125 C 17.25 -52.160156 15.867188 -49.859375 14.671875 -47.296875 C 13.484375 -44.742188 12.429688 -42.28125 11.515625 -39.90625 C 11.179688 -39.082031 10.859375 -38.269531 10.546875 -37.46875 C 10.242188 -36.664062 9.988281 -35.847656 9.78125 -35.015625 C 9.0625 -32.328125 8.425781 -29.644531 7.875 -26.96875 C 7.320312 -24.289062 6.925781 -21.660156 6.6875 -19.078125 C 6.53125 -17.304688 6.46875 -15.632812 6.5 -14.0625 C 6.53125 -12.488281 6.609375 -10.921875 6.734375 -9.359375 C 6.785156 -8.609375 6.894531 -7.785156 7.0625 -6.890625 C 7.238281 -5.992188 7.472656 -5.125 7.765625 -4.28125 C 8.078125 -3.332031 8.425781 -2.59375 8.8125 -2.0625 C 9.03125 -1.6875 9.253906 -1.382812 9.484375 -1.15625 C 9.710938 -0.9375 10.050781 -0.898438 10.5 -1.046875 C 10.71875 -1.117188 10.894531 -1.207031 11.03125 -1.3125 C 11.625 -1.601562 12.21875 -2.125 12.8125 -2.875 C 13.414062 -3.632812 13.882812 -4.269531 14.21875 -4.78125 C 14.675781 -5.488281 15.148438 -6.1875 15.640625 -6.875 C 16.140625 -7.570312 16.566406 -8.234375 16.921875 -8.859375 C 17.546875 -9.828125 18.03125 -10.722656 18.375 -11.546875 C 18.726562 -12.367188 19.132812 -13.4375 19.59375 -14.75 C 19.84375 -15.382812 20.070312 -16.132812 20.28125 -17 C 20.488281 -17.875 20.59375 -18.59375 20.59375 -19.15625 C 19.445312 -18.863281 18.476562 -18.800781 17.6875 -18.96875 C 16.90625 -19.132812 16.082031 -19.445312 15.21875 -19.90625 C 15.09375 -20.007812 14.957031 -20.125 14.8125 -20.25 C 14.664062 -20.382812 14.519531 -20.523438 14.375 -20.671875 C 13.988281 -20.890625 13.625 -21.09375 13.28125 -21.28125 C 12.945312 -21.46875 12.6875 -21.707031 12.5 -22 C 12.363281 -22.207031 12.234375 -22.425781 12.109375 -22.65625 C 11.984375 -22.894531 11.847656 -23.085938 11.703125 -23.234375 C 11.617188 -23.316406 11.503906 -23.378906 11.359375 -23.421875 C 11.222656 -23.472656 11.128906 -23.570312 11.078125 -23.71875 L 11.03125 -23.84375 C 11.082031 -24 11.25 -24.140625 11.53125 -24.265625 C 11.820312 -24.390625 12.035156 -24.472656 12.171875 -24.515625 C 12.960938 -24.691406 13.769531 -24.753906 14.59375 -24.703125 C 15.414062 -24.648438 16.210938 -24.675781 16.984375 -24.78125 C 17.171875 -24.800781 17.351562 -24.800781 17.53125 -24.78125 C 17.71875 -24.757812 17.925781 -24.789062 18.15625 -24.875 L 18.5625 -25.015625 C 19.144531 -25.203125 19.75 -25.453125 20.375 -25.765625 C 21 -26.085938 21.59375 -26.367188 22.15625 -26.609375 C 22.90625 -26.960938 23.609375 -27.273438 24.265625 -27.546875 C 24.921875 -27.816406 25.582031 -28.085938 26.25 -28.359375 C 26.945312 -28.703125 27.578125 -29.003906 28.140625 -29.265625 C 28.703125 -29.535156 29.273438 -29.765625 29.859375 -29.953125 C 30.398438 -30.140625 30.929688 -30.359375 31.453125 -30.609375 C 31.972656 -30.859375 32.476562 -31.066406 32.96875 -31.234375 L 33.578125 -31.4375 C 34.085938 -31.550781 34.382812 -31.476562 34.46875 -31.21875 C 34.539062 -31.03125 34.578125 -30.863281 34.578125 -30.71875 C 34.617188 -30.320312 34.648438 -30.082031 34.671875 -30 C 34.648438 -29.632812 34.515625 -29.285156 34.265625 -28.953125 C 34.023438 -28.617188 33.796875 -28.265625 33.578125 -27.890625 C 33.503906 -27.515625 33.425781 -27.265625 33.34375 -27.140625 C 33.257812 -27.015625 33.125 -26.84375 32.9375 -26.625 C 32.9375 -26.625 32.90625 -26.5625 32.84375 -26.4375 C 32.539062 -26.03125 32.332031 -25.695312 32.21875 -25.4375 C 32.101562 -25.175781 31.953125 -24.9375 31.765625 -24.71875 C 31.585938 -24.507812 31.210938 -24.203125 30.640625 -23.796875 C 30.296875 -22.429688 30.03125 -21.503906 29.84375 -21.015625 C 29.65625 -20.523438 29.492188 -19.90625 29.359375 -19.15625 C 29.085938 -17.863281 28.785156 -16.617188 28.453125 -15.421875 C 28.128906 -14.234375 27.828125 -13.015625 27.546875 -11.765625 C 27.328125 -10.890625 27.085938 -9.953125 26.828125 -8.953125 C 26.566406 -7.960938 26.316406 -7.078125 26.078125 -6.296875 C 25.648438 -4.441406 25.203125 -2.742188 24.734375 -1.203125 C 24.273438 0.335938 23.972656 2.085938 23.828125 4.046875 C 23.835938 4.242188 23.820312 4.507812 23.78125 4.84375 C 23.738281 5.175781 23.785156 5.601562 23.921875 6.125 C 23.972656 6.25 23.859375 6.359375 23.578125 6.453125 C 23.265625 6.554688 22.738281 6.519531 22 6.34375 C 21.257812 6.164062 20.648438 5.753906 20.171875 5.109375 C 20.003906 4.867188 19.835938 4.570312 19.671875 4.21875 C 19.503906 3.875 19.359375 3.519531 19.234375 3.15625 C 18.972656 2.382812 18.773438 1.609375 18.640625 0.828125 C 18.503906 0.0546875 18.359375 -0.628906 18.203125 -1.234375 C 17.390625 -0.347656 16.46875 0.503906 15.4375 1.328125 C 14.414062 2.148438 13.316406 2.757812 12.140625 3.15625 C 11.867188 3.238281 11.601562 3.304688 11.34375 3.359375 C 11.09375 3.421875 10.820312 3.484375 10.53125 3.546875 C 9.664062 3.617188 8.921875 3.554688 8.296875 3.359375 C 7.679688 3.171875 7.046875 2.914062 6.390625 2.59375 C 6.085938 2.445312 5.78125 2.296875 5.46875 2.140625 C 5.164062 1.992188 4.863281 1.851562 4.5625 1.71875 C 3.425781 0.988281 2.421875 0.046875 1.546875 -1.109375 C 0.671875 -2.273438 -0.0820312 -3.734375 -0.71875 -5.484375 L -1.4375 -8.109375 C -2.019531 -10.117188 -2.359375 -12.125 -2.453125 -14.125 C -2.554688 -16.132812 -2.597656 -18.070312 -2.578125 -19.9375 C -2.441406 -23.695312 -2.0625 -27.265625 -1.4375 -30.640625 C -1.070312 -32.390625 -0.75 -33.867188 -0.46875 -35.078125 C -0.195312 -36.296875 0.113281 -37.492188 0.46875 -38.671875 C 0.832031 -39.847656 1.320312 -41.222656 1.9375 -42.796875 C 2.445312 -44.273438 3.039062 -45.679688 3.71875 -47.015625 C 4.40625 -48.347656 5.117188 -49.617188 5.859375 -50.828125 C 6.597656 -52.128906 7.476562 -53.367188 8.5 -54.546875 C 9.53125 -55.722656 10.570312 -56.632812 11.625 -57.28125 C 12.09375 -57.644531 12.625 -57.960938 13.21875 -58.234375 C 13.8125 -58.503906 14.363281 -58.828125 14.875 -59.203125 L 15.4375 -59.390625 C 16.46875 -59.734375 17.691406 -59.847656 19.109375 -59.734375 C 20.535156 -59.617188 21.945312 -59.390625 23.34375 -59.046875 C 24.75 -58.703125 25.875 -58.375 26.71875 -58.0625 C 27.363281 -57.789062 27.929688 -57.410156 28.421875 -56.921875 C 28.910156 -56.429688 29.296875 -55.773438 29.578125 -54.953125 C 29.640625 -54.773438 29.703125 -54.554688 29.765625 -54.296875 C 29.828125 -54.046875 29.875 -53.800781 29.90625 -53.5625 C 29.957031 -53.238281 30.03125 -52.898438 30.125 -52.546875 C 30.21875 -52.191406 30.285156 -51.820312 30.328125 -51.4375 C 30.410156 -50.269531 30.398438 -49.160156 30.296875 -48.109375 C 30.203125 -47.066406 30.019531 -45.90625 29.75 -44.625 C 29.507812 -43.53125 29.1875 -42.363281 28.78125 -41.125 C 28.375 -39.882812 27.828125 -38.78125 27.140625 -37.8125 C 26.453125 -36.851562 25.566406 -36.191406 24.484375 -35.828125 C 23.222656 -35.398438 21.914062 -35.335938 20.5625 -35.640625 C 19.207031 -35.941406 18.09375 -36.421875 17.21875 -37.078125 L 17.15625 -37.21875 C 17.019531 -37.625 16.816406 -37.929688 16.546875 -38.140625 C 16.285156 -38.347656 16.132812 -38.519531 16.09375 -38.65625 Z M 16.09375 -38.65625 "/></g></g></g><g fill="#ffffff" fill-opacity="1"><g transform="translate(57.548208, 50.169229)"><g/></g></g></svg>